<?xml version="1.0"?>
<svg xmlns="http://www.w3.org/2000/svg" xmlns:xlink="http://www.w3.org/1999/xlink" xmlns:svgjs="http://svgjs.com/svgjs" version="1.1" width="512" height="512" x="0" y="0" viewBox="0 0 512 512" style="enable-background:new 0 0 512 512" xml:space="preserve" class=""><g>
<g xmlns="http://www.w3.org/2000/svg">
	<path style="" d="M429.712,457.145V100.199c-117.33-11.694-231.717-11.685-347.429,0v356.946   c58.853,17.902,116.571,27.264,173.714,27.429l0,0C313.132,484.409,370.86,475.047,429.712,457.145" fill="#44546e" data-original="#b48348" class=""/>
	<path style="" d="M441.061,19.832c-123.026-14.254-247.104-14.254-370.121,0C30.592,24.157,0,58.195,0,98.771v358.373   c0,25.253,20.471,45.714,45.714,45.714s45.714-20.462,45.714-45.714V109.341c109.623-11.685,217.993-11.694,329.143,0v347.803   c0,25.253,20.471,45.714,45.714,45.714c25.243,0,45.714-20.462,45.714-45.714V98.771C512,58.195,481.408,24.157,441.061,19.832" fill="#44546e" data-original="#d8a251" class=""/>
</g>
<g xmlns="http://www.w3.org/2000/svg">
</g>
<g xmlns="http://www.w3.org/2000/svg">
</g>
<g xmlns="http://www.w3.org/2000/svg">
</g>
<g xmlns="http://www.w3.org/2000/svg">
</g>
<g xmlns="http://www.w3.org/2000/svg">
</g>
<g xmlns="http://www.w3.org/2000/svg">
</g>
<g xmlns="http://www.w3.org/2000/svg">
</g>
<g xmlns="http://www.w3.org/2000/svg">
</g>
<g xmlns="http://www.w3.org/2000/svg">
</g>
<g xmlns="http://www.w3.org/2000/svg">
</g>
<g xmlns="http://www.w3.org/2000/svg">
</g>
<g xmlns="http://www.w3.org/2000/svg">
</g>
<g xmlns="http://www.w3.org/2000/svg">
</g>
<g xmlns="http://www.w3.org/2000/svg">
</g>
<g xmlns="http://www.w3.org/2000/svg">
</g>
</g></svg>
